<?xml version="1.0" standalone="no"?><!DOCTYPE svg PUBLIC "-//W3C//DTD SVG 1.1//EN" "http://www.w3.org/Graphics/SVG/1.1/DTD/svg11.dtd"><svg t="1568728984125" class="icon" viewBox="0 0 1024 1024" version="1.1" xmlns="http://www.w3.org/2000/svg" p-id="731" xmlns:xlink="http://www.w3.org/1999/xlink" width="200" height="200"><defs><style type="text/css"></style></defs><path d="M511.04768 0.48014222c-276.17735111 0-500.06471111 223.88622222-500.06471111 500.06471111s223.88736 500.06471111 500.06471111 500.06471112 500.06471111-223.88736 500.06471111-500.06471112-223.88736-500.06471111-500.06471111-500.06471111zM553.75644445 35.90712889s31.32302222-18.16803555 42.22293333-7.26812444c10.89991111 10.89991111 49.05301333-1.81589333 147.15790222 56.32 0 0-21.6064 23.04227555-26.33159111 21.65987555 2.75797333 5.00963555 11.23669333 20.28088889 17.24757333 29.72103111 7.26698667 11.41191111 9.08401778 12.20608 9.08401778 12.20608l-7.26812445 10.89991111 7.26812445 1.81589333c-7.26812445-1.81589333-10.89991111 19.98392889-21.41866667 23.61799112-10.51761778 3.63406222 3.25063111 23.61799111-0.38229333 27.25091555-3.63292445 3.63406222 1.81703111 36.33607111 0 55.59751111-1.81589333 19.26257778-9.08288 2.53838222-18.16689778 0-9.08401778-2.53724445-23.61799111-8.36266667-24.86044444-13.81262222-1.24472889-5.44995555-4.20750222-21.79982222-0.57457778-30.88384 3.63292445-9.08401778-10.89991111-18.16803555-18.16803555-24.82972444-7.26812445-6.66282667-36.33493333 1.21173333-41.78602667 0-5.44995555-1.21287111-9.08288-16.95630222-9.08288-31.49027556s25.43502222 1.81703111 39.74940444 0c14.31552-1.81589333 16.57059555-38.03704889 16.57059556-38.03704889l-0.82261333-30.79054222c-5.87320889-2.34837333-6.83235555-5.39306667 2.63964444-9.29336889 0 0-30.88611555-7.26698667-38.15196444 9.08401778-7.26812445 16.35214222-10.89991111 14.76380445-12.71808 30.99989333-1.81589333 16.23608889-30.27968 1.93080889-36.94023112 0-6.66168889-1.93194667-24.82972445-23.73404445-24.82972444-23.73404444 5.44995555-12.71694222 9.08288-21.79982222 9.08288-21.79982223l-9.52092444-21.79982222V35.90712889zM267.14680889 204.86599111c3.08110222-4.11192889 23.61685333-39.97013333 49.05301333-29.06794666 25.43502222 10.89991111 41.78488889-12.71694222 41.78488889-12.71694223s37.34528-38.15196445 39.56508444-32.70200889l2.21980445 5.44995556c-2.21980445-5.44995555 30.88611555-14.53397333 34.51790222 3.63406222 3.63406222 18.16689778 25.43616 27.30780445 25.43616 27.30780444s-12.71808 21.74520889-9.08401777 38.09507556c3.63292445 16.35100445 16.35100445 19.98392889 9.08401777 34.51904-7.26812445 14.53397333-21.80209778 19.98392889-25.43616 27.25091556-3.63292445 7.26812445-33.50869333-23.61685333-36.73884444-34.51904-3.23015111-10.89991111-19.19203555-21.79982222-33.01262223-18.16689778-13.81944889 3.63406222-50.15552 12.71694222-57.42136888 9.08401778-7.26698667-3.63406222-48.48071111-6.81073778-39.96785778-18.16803556zM754.03946667 738.99463111c-14.53397333 38.15196445-49.05301333 103.55598222-67.21991112 121.72288-18.16803555 18.16803555-39.97013333 52.68707555-56.32 65.40401778-16.35100445 12.71694222-16.35100445 36.33493333-36.33493333 34.51904-19.98392889-1.81703111-43.60305778-58.13703111-38.15196444-72.67100444 5.44995555-14.53397333-99.92192-39.97013333-99.92192-39.97013334s-45.42008889-5.44995555-54.50296889-92.65379556c-1.61792-15.51928889-2.65557333-26.53297778-3.27566222-34.18225777-13.65105778-6.03249778-67.19715555-28.19754667-100.28032-20.32071111-38.15196445 9.08401778-47.23598222-12.12074667-79.93799112-16.96085334l-56.32-52.07608888s-92.65379555-107.19004445-81.75388444-125.35694223c10.89991111-18.16803555 10.89991111-67.21991111 12.71694222-78.11982222 1.81703111-10.90104889-14.49984-79.94026667-13.60896-89.02314667 0.89201778-9.08401778-13.64195555-43.60305778-13.64195555-43.60305778s34.51904-72.66986667 39.96899555-72.66986666 25.43502222 61.76995555 45.42008889 63.58584889c19.98279111 1.81703111 74.48576-1.81589333 82.66183111-10.89991111 8.17607111-9.08401778 15.44192-19.98392889 24.52593778-19.98392889 9.08401778 0 9.08401778-5.44995555 25.43502222 1.81703111 16.35100445 7.26698667 34.51904 18.16689778 41.78488889 29.06680889 7.26812445 10.89991111-5.44995555 32.70200889 32.70200889 32.70200889s38.15196445-9.08401778 43.60305778 16.35100444c5.44995555 25.43616 11.90912 81.75502222-4.03683556 85.38908444-15.94709333 3.63292445-63.18307555 58.94144-59.54901333 76.70670223 3.63406222 17.76526222 3.63406222 45.01617778-3.63406222 61.36718222-7.26698667 16.34986667-12.71694222 21.79982222-39.96899556 19.98392889-27.25091555-1.81703111-50.28977778-16.35214222-57.84689777 5.44995556-7.55712 21.80096-22.01372445 70.91427555 3.34506666 65.95584 0 0 39.96785778-12.16512 54.50183111 0 14.53397333 12.16512 107.19004445 52.13297778 107.19004445 52.13297777s83.56977778-90.83790222 214.37781333-32.70087111l21.80209778 14.53397334 36.33493333-7.89959112s47.23484445-13.90250667 63.58698667-10.26844444l16.35100444 3.63406222v-7.26812444c-0.00227555 0.00227555 14.53169778 38.15424-0.00227555 76.30620444z m212.56192-207.11082666s-10.89991111-16.35100445-10.89991112-33.54965334-12.71808-15.50336-12.71808-37.30318222c0-21.80209778-16.35100445-14.53397333-27.25091555-29.06794667s-16.35214222 5.44995555-25.43502222 7.26698667c-9.08401778 1.81703111-7.26812445 16.35214222-16.35214223 33.60995556-9.08401778 17.26008889-32.70087111 28.16-39.96899555 24.92984888-7.26698667-3.23128889-34.51904-27.65368889-36.33493333-33.10592-1.81703111-5.44995555-38.15196445-36.33493333-37.14389334-43.60192 1.00920889-7.26812445-10.09208889-45.42008889-17.35907555-63.58698666-7.26812445-18.16803555 0-89.74449778 0-89.74449778-10.89991111-6.17130667 99.92192-51.96458667 85.38794667-57.41454222-14.53397333-5.44995555-21.80096-65.40288-21.80096-65.40288l52.88732444 27.25091555c52.88846222 27.25205333 119.7056 243.44803555 119.7056 243.44803556v61.76995555l-12.71694222 54.50183112z" fill="#1296db" p-id="732"></path></svg>